<!-- <svg viewBox="0 0 200 200" xmlns="http://www.w3.org/2000/svg">
  <path fill="#e7008a" d="M43.4,-64.9C57.3,-67.2,70.3,-57.7,71.1,-44.8C71.9,-32,60.5,-16,59.5,-0.6C58.5,14.9,67.9,29.8,64.8,38.5C61.6,47.2,46,49.8,33.1,47.5C20.2,45.3,10.1,38.1,2.6,33.6C-4.9,29.1,-9.8,27.2,-16.3,25.8C-22.8,24.4,-31,23.5,-36.1,19.3C-41.3,15.1,-43.5,7.5,-50.3,-3.9C-57.1,-15.4,-68.4,-30.7,-67.7,-42.6C-66.9,-54.5,-54.1,-63,-40.8,-61C-27.5,-59,-13.8,-46.5,0.5,-47.4C14.8,-48.3,29.6,-62.5,43.4,-64.9Z" transform="translate(100 100)" />
</svg> -->

<svg id="visual" viewBox="0 0 900 600" width="900" height="600" xmlns="http://www.w3.org/2000/svg" xmlns:xlink="http://www.w3.org/1999/xlink" version="1.1"><rect x="0" y="0" width="900" height="600" fill="#ffffff"></rect><path d="M0 387L18.8 401.7C37.7 416.3 75.3 445.7 112.8 465.5C150.3 485.3 187.7 495.7 225.2 497.2C262.7 498.7 300.3 491.3 337.8 475.3C375.3 459.3 412.7 434.7 450.2 427.7C487.7 420.7 525.3 431.3 562.8 442.3C600.3 453.3 637.7 464.7 675.2 458.8C712.7 453 750.3 430 787.8 435.5C825.3 441 862.7 475 881.3 492L900 509L900 601L881.3 601C862.7 601 825.3 601 787.8 601C750.3 601 712.7 601 675.2 601C637.7 601 600.3 601 562.8 601C525.3 601 487.7 601 450.2 601C412.7 601 375.3 601 337.8 601C300.3 601 262.7 601 225.2 601C187.7 601 150.3 601 112.8 601C75.3 601 37.7 601 18.8 601L0 601Z" fill="#e7008a"></path></svg>